<svg width="406" height="406" viewBox="0 0 406 406" fill="none" xmlns="http://www.w3.org/2000/svg">
<circle cx="203" cy="203" r="203" fill="#050A1B"/>
<path d="M196.87 149.349H143.078V202.848H196.87V149.349Z" fill="#F2CF63"/>
<path d="M142.942 143.588H196.734V93.0118H142.942V143.588Z" fill="#1F457E"/>
<path d="M82.9972 143.588H136.789V93.0118H82.9972V143.588Z" fill="#FE1D5B"/>
<path d="M202.719 143.5C202.719 113.972 226.837 90 256.511 90V143.5H202.719Z" fill="#1A84DD"/>
<path d="M262.677 203L316.469 203L316.469 149.5L262.677 149.5L262.677 203Z" fill="#1F457E"/>
<path d="M202.719 202.994L256.511 149.349H202.719V202.994Z" fill="#FE1D5B"/>
<path d="M316.589 143.5C316.589 113.972 292.47 90 262.797 90V143.5H316.589Z" fill="#F2CF63"/>
<path d="M203.738 262.5C203.738 232.972 227.857 209 257.53 209V262.5H203.738Z" fill="#1A84DD"/>
<path d="M203.738 268.349L257.53 321.994V268.349H203.738Z" fill="#1F457E"/>
<path d="M317.46 321.995C317.46 292.468 293.341 268.495 263.668 268.495V321.995H317.46Z" fill="#FE1D5B"/>
<path d="M196.866 268.349C196.866 297.876 172.747 321.848 143.074 321.848V268.349H196.866Z" fill="#F2CF63"/>
<path d="M83 268.349C83 297.876 107.119 321.848 136.792 321.848V268.349H83Z" fill="#1A84DD"/>
<path d="M109.896 262.5C124.75 262.5 136.792 250.523 136.792 235.75C136.792 220.976 124.75 209 109.896 209C95.0417 209 83 220.976 83 235.75C83 250.523 95.0417 262.5 109.896 262.5Z" fill="#1F457E"/>
<path d="M290.564 262.5C305.418 262.5 317.46 250.523 317.46 235.75C317.46 220.976 305.418 209 290.564 209C275.71 209 263.668 220.976 263.668 235.75C263.668 250.523 275.71 262.5 290.564 262.5Z" fill="#F2CF63"/>
<path d="M136.793 149.349H122.906V202.848H136.793V149.349Z" fill="#1A84DD"/>
<path d="M116.765 149.349H102.879V202.848H116.765V149.349Z" fill="#1A84DD"/>
<path d="M96.8904 149.349H83.0039V202.848H96.8904V149.349Z" fill="#1A84DD"/>
<path d="M197.449 209H183.562V262.5H197.449V209Z" fill="#FE1D5B"/>
<path d="M177.426 209H163.539V262.5H177.426V209Z" fill="#FE1D5B"/>
<path d="M157.547 209H143.66V262.5H157.547V209Z" fill="#FE1D5B"/>
</svg>
