<svg width="120" height="95" viewBox="0 0 120 95" fill="none" xmlns="http://www.w3.org/2000/svg">
<path d="M55 63C69.9117 63 82 50.9117 82 36C82 21.0883 69.9117 9 55 9C40.0883 9 28 21.0883 28 36C28 50.9117 40.0883 63 55 63Z" fill="#5AC3D4"/>
<path d="M57.1585 43.7098C67.7207 40.7568 75.3172 34.9079 74.1256 30.6459C72.9341 26.3839 63.4057 25.3228 52.8434 28.2758C42.2812 31.2289 34.6847 37.0777 35.8763 41.3397C37.0678 45.6017 46.5962 46.6628 57.1585 43.7098Z" fill="#F9BF35" stroke="#5AC3D4" stroke-width="0.435484" stroke-miterlimit="10"/>
<path d="M42.4842 19.0553L50.2445 19.8436L49.8918 35.1465L57.6782 34.4453L57.896 20.2834L65.6999 21.1152L67.9818 51.1069L57.3691 52.949L57.5868 39.2226L49.7829 39.9673L49.5652 50.3187L42.0444 52.8619L42.4842 19.0553Z" fill="#CE2033"/>
<path d="M19.9512 0L19.5151 1.48126V44.4603L19.9512 44.8953L39.9011 33.1027L19.9512 0Z" fill="#343434"/>
<path d="M19.9505 0L0 33.1027L19.9505 44.8953V24.0345V0Z" fill="#8C8C8C"/>
<path d="M19.9513 48.6723L19.7055 48.972V64.2818L19.9513 64.9993L39.9135 36.8858L19.9513 48.6723Z" fill="#3C3C3B"/>
<path d="M19.9505 64.9993V48.6723L0 36.8858L19.9505 64.9993Z" fill="#8C8C8C"/>
<path d="M19.9515 44.8946L39.9015 33.102L19.9515 24.0338V44.8946Z" fill="#141414"/>
<path d="M0 33.102L19.9505 44.8946V24.0338L0 33.102Z" fill="#393939"/>
</svg>
